<svg width="16" height="22" fill="none" xmlns="http://www.w3.org/2000/svg"><path d="M.87 5V1.65l.16.17H.045V1.5H1.23V5H.87zm-.675 8v-.255L1.65 11.32c.133-.13.233-.243.3-.34a.97.97 0 00.135-.28.944.944 0 00.035-.245.591.591 0 00-.21-.48c-.137-.117-.34-.175-.61-.175-.207 0-.39.032-.55.095a1.035 1.035 0 00-.405.295L.09 9.97a1.34 1.34 0 01.525-.37c.213-.087.452-.13.715-.13.237 0 .442.038.615.115a.864.864 0 01.545.83 1.2 1.2 0 01-.22.685c-.08.12-.198.257-.355.41L.58 12.82l-.1-.14h2.17V13H.195zm1.11 8.03a2.15 2.15 0 01-.72-.12 1.484 1.484 0 01-.54-.33l.175-.285c.113.117.265.213.455.29.193.077.403.115.63.115.29 0 .512-.063.665-.19a.622.622 0 00.235-.51.628.628 0 00-.23-.51c-.15-.127-.388-.19-.715-.19h-.25v-.265l1.08-1.355.05.14H.19v-.32h2.25v.255L1.36 19.11l-.175-.115h.135c.42 0 .733.093.94.28a.92.92 0 01.315.72c0 .197-.047.373-.14.53a.95.95 0 01-.425.37c-.187.09-.422.135-.705.135z" fill="#000"/><path stroke="#000" d="M4 3.5h12m-12 8h12m-12 8h12"/></svg>