<svg width="42" height="51" fill="none" xmlns="http://www.w3.org/2000/svg"><path d="M12 13a6 6 0 11-12 0 6 6 0 0112 0z" fill="#000"/><path d="M9.5 4v43a3.5 3.5 0 11-7 0V4a3.5 3.5 0 117 0z" stroke="#000"/><path d="M9.5 4v43a3.5 3.5 0 11-7 0V4a3.5 3.5 0 117 0z" stroke="#000"/><path d="M9.5 4v43a3.5 3.5 0 11-7 0V4a3.5 3.5 0 117 0z" stroke="#000"/><rect x="17.5" y=".5" width="7" height="50" rx="3.5" stroke="#000"/><rect x="17.5" y=".5" width="7" height="50" rx="3.5" stroke="#000"/><rect x="17.5" y=".5" width="7" height="50" rx="3.5" stroke="#000"/><circle cx="21" cy="38" r="6" fill="#000"/><rect x="32.5" y=".5" width="7" height="50" rx="3.5" stroke="#000"/><rect x="32.5" y=".5" width="7" height="50" rx="3.5" stroke="#000"/><rect x="32.5" y=".5" width="7" height="50" rx="3.5" stroke="#000"/><circle cx="36" cy="14" r="6" fill="#000"/></svg>