<svg width="16" height="22" viewBox="0 0 16 22" fill="none" xmlns="http://www.w3.org/2000/svg">
<path d="M0.87 5V1.65L1.03 1.82H0.045V1.5H1.23V5H0.87Z" fill="black"/>
<path d="M0.195 13V12.745L1.65 11.32C1.78333 11.19 1.88333 11.0767 1.95 10.98C2.01667 10.88 2.06167 10.7867 2.085 10.7C2.10833 10.6133 2.12 10.5317 2.12 10.455C2.12 10.2517 2.05 10.0917 1.91 9.975C1.77333 9.85833 1.57 9.8 1.3 9.8C1.09333 9.8 0.91 9.83167 0.75 9.895C0.593333 9.95833 0.458333 10.0567 0.345 10.19L0.09 9.97C0.226667 9.81 0.401667 9.68667 0.615 9.6C0.828333 9.51333 1.06667 9.47 1.33 9.47C1.56667 9.47 1.77167 9.50833 1.945 9.585C2.11833 9.65833 2.25167 9.76667 2.345 9.91C2.44167 10.0533 2.49 10.2217 2.49 10.415C2.49 10.5283 2.47333 10.64 2.44 10.75C2.41 10.86 2.35333 10.9767 2.27 11.1C2.19 11.22 2.07167 11.3567 1.915 11.51L0.58 12.82L0.48 12.68H2.65V13H0.195Z" fill="black"/>
<path d="M1.305 21.03C1.05167 21.03 0.811667 20.99 0.585 20.91C0.361667 20.8267 0.181667 20.7167 0.045 20.58L0.22 20.295C0.333333 20.4117 0.485 20.5083 0.675 20.585C0.868333 20.6617 1.07833 20.7 1.305 20.7C1.595 20.7 1.81667 20.6367 1.97 20.51C2.12667 20.3833 2.205 20.2133 2.205 20C2.205 19.7867 2.12833 19.6167 1.975 19.49C1.825 19.3633 1.58667 19.3 1.26 19.3H1.01V19.035L2.09 17.68L2.14 17.82H0.19V17.5H2.44V17.755L1.36 19.11L1.185 18.995H1.32C1.74 18.995 2.05333 19.0883 2.26 19.275C2.47 19.4617 2.575 19.7017 2.575 19.995C2.575 20.1917 2.52833 20.3683 2.435 20.525C2.34167 20.6817 2.2 20.805 2.01 20.895C1.82333 20.985 1.58833 21.03 1.305 21.03Z" fill="black"/>
<line x1="4" y1="3.5" x2="16" y2="3.5" stroke="black"/>
<line x1="4" y1="11.5" x2="16" y2="11.5" stroke="black"/>
<line x1="4" y1="19.5" x2="16" y2="19.5" stroke="black"/>
</svg>
