<svg width="42" height="51" viewBox="0 0 42 51" fill="none" xmlns="http://www.w3.org/2000/svg">
<path d="M12 13C12 16.3137 9.31371 19 6 19C2.68629 19 0 16.3137 0 13C0 9.68629 2.68629 7 6 7C9.31371 7 12 9.68629 12 13Z" fill="black"/>
<path d="M9.5 4V47C9.5 48.933 7.933 50.5 6 50.5C4.067 50.5 2.5 48.933 2.5 47V4C2.5 2.067 4.067 0.5 6 0.5C7.933 0.5 9.5 2.067 9.5 4Z" stroke="black"/>
<path d="M9.5 4V47C9.5 48.933 7.933 50.5 6 50.5C4.067 50.5 2.5 48.933 2.5 47V4C2.5 2.067 4.067 0.5 6 0.5C7.933 0.5 9.5 2.067 9.5 4Z" stroke="black"/>
<path d="M9.5 4V47C9.5 48.933 7.933 50.5 6 50.5C4.067 50.5 2.5 48.933 2.5 47V4C2.5 2.067 4.067 0.5 6 0.5C7.933 0.5 9.5 2.067 9.5 4Z" stroke="black"/>
<rect x="17.5" y="0.5" width="7" height="50" rx="3.5" stroke="black"/>
<rect x="17.5" y="0.5" width="7" height="50" rx="3.5" stroke="black"/>
<rect x="17.5" y="0.5" width="7" height="50" rx="3.5" stroke="black"/>
<circle cx="21" cy="38" r="6" fill="black"/>
<rect x="32.5" y="0.5" width="7" height="50" rx="3.5" stroke="black"/>
<rect x="32.5" y="0.5" width="7" height="50" rx="3.5" stroke="black"/>
<rect x="32.5" y="0.5" width="7" height="50" rx="3.5" stroke="black"/>
<circle cx="36" cy="14" r="6" fill="black"/>
</svg>
